<?xml version="1.0" encoding="UTF-8"?>
<svg id="Layer_1" data-name="Layer 1" xmlns="http://www.w3.org/2000/svg" viewBox="0 0 205.47 208.44">
  <defs>
    <style>
      .cls-1 {
        fill: #1a3741;
      }
    </style>
  </defs>
  <path class="cls-1" d="M165.35,157.83c-.56.36,0,7.56-.24,8.83-.14.73-.9,1.08-1.54,1.21l-45.15.06c-.61.16-1.95-1.07-1.95-1.5v-8.6h-26.84v8.6c0,.51-1.49,1.76-2.17,1.5h-44.3c-.73.2-2.4-.84-2.4-1.5v-8.6h-6.77c-.1,0-.84-.53-.92-.69v-31.43c.13-.14.63-.69.69-.69h6.88l.34-.34v-13.88c-1.01.24-2.08,1.03-3.12,1.13-3.02.31-6.42-2.26-6.52-5.37.56-8.85-.72-18.56.01-27.31.55-6.55,6.01-11.76,12.39-12.74-5.05-5.74-2.88-15.33,4.64-17.49,8.7-2.5,16.27,5.55,13.13,14.05-.54,1.45-1.51,2.56-2.41,3.79,1.47.68,3.02,1.17,4.43,2,3.95,2.33,6.67,6.09,7.85,10.51.26.96.12,2.37.8,2.98v-27.65c0-.24.77-2.14.96-2.48,1.39-2.54,4.18-3.61,6.95-3.84h86.06c4.99.35,7.82,3.12,8.15,8.14.1,33.29-.16,66.55-.23,99.83.19.37-.95,1.48-1.04,1.48h-7.69ZM46.83,64.81c7.85,6.31,16.92-5.39,9.42-11.37-7.79-6.22-16.63,5.58-9.42,11.37ZM75.41,55.38v29.14l.34.34h6.19c.23,0,1.54.73,1.8.95,2.09,1.75,2.27,4.8.5,6.86-.47.55-2.08,1.6-2.76,1.6h-5.74l-.34.34v16.29c0,.15,1.26,2.06,1.49,2.64,1.1,2.78.91,6.3.82,9.3-.01.41-.55,2.17.1,2.17h50.82c-.19-4.28-.9-8.58,1.11-12.54,4.31-8.5,16.46-9.17,21.66-1.16,2.84,4.38,1.97,8.76,1.78,13.7h17.32l.34-.34V55.38c0-.07-.43-1.14-.52-1.32-.61-1.28-2.27-2.32-3.72-2.25h-87.21c-1.9.05-3.74,1.7-4.01,3.57ZM43.06,103.45h16.86l.34-.34v-23.4c0-.8,1.54-1.26,2.29-.91.12.05.92.85.92.91v11.01l.34.34h17.21c1.03,0,1.73-2.39.13-2.88-2.62-.8-7.3.67-10.03-.52-3.11-1.34-2.3-5.07-3.02-7.76-2.75-10.29-13.29-10.76-22.17-10.17-6.03.4-10.76,3.94-11.33,10.24-.75,8.27.5,17.53-.03,25.9.35,3.67,4.98,3.65,5.25-.03l.08-26.08c.21-1.12,1.84-1.34,2.58-.62.08.08.58.97.58,1.03v23.29ZM63.48,105.75h4.02c.94,0,3.29,1.29,4.24,1.74l.47-.25v-12.62l-.34-.34h-8.03l-.34.34v11.13ZM49.72,106.89h-5.51v17.78l.34.34h5.16v-18.13ZM58.66,106.89h-5.16l-.34.34v6.19s.39.42.46.34c.4-1.56,1.69-3.45,2.86-4.6.37-.36,2.7-1.79,2.19-2.29ZM64.12,109.02c-5.43.62-8.32,5.2-8.22,10.39.07,3.8.39,7.46,3.57,9.96,4.5,3.55,11.4,2.14,13.92-3.05,1.04-2.14,1.37-7.99.82-10.31-1.05-4.47-5.55-7.51-10.09-6.99ZM134.46,111.56c-.99.97-2.17,2.92-2.5,4.26-.61,2.43-.27,8.41.86,10.64,3.97,7.85,16.14,5.78,17.16-3.18.27-2.36.42-5.52-.24-7.78-1.89-6.54-10.38-8.75-15.28-3.95ZM89.64,154.62h26.5l.34-.34v-4.59c0-1.48,1.46-4.45,2.41-5.62,2.11-2.63,8.55-5.6,11.82-6.76,1.46-.52,2.78-.66,4.26-1.02v-3c-2.05-1.36-3.62-3.09-5.11-5l-53.42-.04c-.53.1-1.81,2.29-2.4,2.88-6,5.91-15.64,4.15-19.86-2.88h-18.01v26.16c1.35.25,3.37.56,4.59-.11v-4.36c0-4.12,3.7-7.52,7.03-9.26,1.22-.64,8.79-4.19,9.55-4.12.32.03.7.23.97.41l6.88,6.66c2.44-1.54,4.5-4.93,6.76-6.56.39-.28.77-.51,1.27-.53,2.97,1.24,6.04,2.44,8.91,3.9,3.49,1.77,7.49,5.14,7.49,9.49v4.7ZM170.63,128.23h-18.7c-1.37,2.07-2.97,3.7-5.05,5.05l-.11,3.21c3.47.1,7.1,1.94,10.18,3.47,3.24,1.62,5.65,2.81,7.26,6.27.19.41.91,2.24.91,2.53v5.51l.34.34h5.16c-.07-.23.23-.5.23-.57v-25.24c0-.08-.3-.35-.23-.57ZM138.62,136.49h4.59c.49-.28.5-1.69.13-1.97-1.51.06-3.15.37-4.7-.07-.56.14-.51,1.89-.02,2.04ZM161.91,164.48v-15.03c0-1.27-1.75-3.77-2.77-4.57-1.77-1.37-9.86-5-12.02-5.19-2.89-.25-12.23-.33-14.7.46-2.33.74-9.47,4.11-10.88,5.87-2.55,3.19-1.51,9.06-1.6,13.08-.04,1.62-.74,3.87.11,5.38h41.87ZM86.2,164.48v-15.26c0-.46-.83-2.05-1.14-2.53-2.22-3.45-7.79-4.46-11.19-6.5l-.64.18-6.87,6.9c-1.06.9-1.75.38-2.64-.34-2.26-1.81-4.31-4.62-6.53-6.56l-.64-.18c-4.6,2.72-11.69,3.47-12.33,9.95-.31,3.12.1,6.88,0,10.1-.03,1.27-.73,3.09.11,4.24h41.87Z"/>
</svg>