<?xml version="1.0" encoding="UTF-8"?>
<svg id="Layer_1" data-name="Layer 1" xmlns="http://www.w3.org/2000/svg" viewBox="0 0 205.47 208.44">
  <defs>
    <style>
      .cls-1 {
        fill: #1a3741;
      }
    </style>
  </defs>
  <path class="cls-1" d="M152.79,157.2c-33.63,31.7-86.18,23.43-106.38-18.46-1.78-3.68-3.46-10.68-6.22-12.98-1.6-1.32-3.18-1.56-4.33-3.67-1.74-3.2-1.08-6.84,1-9.7.81-1.11,2.45-2.18,2.91-3.34.92-2.38.97-8.29,1.54-11.32,2.98-15.73,11.94-29.72,24.56-39.4,2.15-1.65,9.19-5.54,10.04-7.24,1.63-3.24.78-5.57,4.58-7.91,3.28-2.02,6.78-1.54,9.94.46.7.45,1.09,1.21,1.69,1.61,1.82,1.23,7.44-.26,9.91-.38,7.72-.4,15.64.7,23.07,2.69,1.83.49,6.02,2.44,7.46,2.41,1.52-.03,4.36-2.28,6.28-2.51,2.78-.32,6.34,1.62,7.64,4.08,1.46,2.76,1.1,6.57,2.11,8.55.64,1.26,3.7,3.32,4.92,4.64,11.78,12.62,17.99,27.97,18.63,45.32,3.76,3.44,7.01,5.57,5.24,11.27-1.8,5.77-7.61,4.57-9.62,11.7-1.42,5.05,1.76,5.47,2.12,9.44.32,3.56-3.28,8.04-6.84,8.62-.92.15-1.92-.08-2.88.06-3.31.48-5.09,3.91-7.37,6.05ZM81.43,47.96c-3.33,5.15,4.1,9.17,7,4.99,3.45-4.95-4.21-9.31-7-4.99ZM87.65,79.68c.57.63,1.62,1.06,2.45.67.99-.46,5.1-5.23,6.45-6.43,8.45-7.46,17.61-12.39,28.13-16.35,2.13-.8,4.66-.84,6.22-2.59-1.3-1.66-3.48-2.35-5.43-3.02-3.15-1.08-8.41-2.34-11.7-2.63-2.7-.24-18.18-.34-19.61.88-1.01,2.92-1.73,5.16-4.3,7.09-2.88,2.16-3.83.86-4.18,5.38-.29,3.7.27,11.43,1.16,15.04.15.62.39,1.49.81,1.95ZM136.18,53.46c-3.7,4.07,2.71,9.81,6.49,5.57,3.55-4-2.46-10-6.49-5.57ZM55.31,145.83c1.65,1.44,7.02,2.06,9.08,1.43,1.56-.48,4.76-5.71,6.15-7.08-.47-12.02.74-23.83,4.95-35.11,1.01-2.71,4.16-7.99,4.6-10.1.55-2.65-1.18-3.3-1.38-5.1-.44-3.91,2.44-6.99,4.21-10.01-.45-3.59-1.07-7.28-1.27-10.9-.19-3.4,1.42-11.63-2.84-12.6-2.52-.57-5.91,2.23-7.94,3.67-13.69,9.73-23.22,24.29-25.88,41.01-.3,1.91-1.29,7.12-.01,8.45,1.16.9,2.42-.26,3.39-1.02,6.05-4.71,10.29-9.51,17.28-13.59,1.91-1.12,7.86-4.38,9.74-4.63,2.39-.32,3.61,2.06,1.66,3.53-6.11,2.95-12.07,6.35-17.43,10.5-1.37,1.06-8.07,6.64-8.41,7.76-.55,1.84.48,2.81.67,4.32.26,2.07-.14,4.32-1.32,6.05-1.09,1.6-4.3,3.06-4.13,4.89.18,1.97,3.08,8.17,4.09,10.27.87,1.81,3.5,7.12,4.79,8.26ZM149.86,102c-1.11-1.07-3.01-1.66-1.53-3.49.61-.75,1.35-1.13,2.3-.81,1.44.49,4.83,3.4,6.17,4.52,1.46,1.22,8.59,8.44,9.57,8.46,1.85-.4,1.4-3.79,1.28-5.34-1.04-13.87-9.01-30.81-19.65-39.89-3.82-3.26-3.55-1.23-7.39-.76-1.9.24-3.83-.13-5.5-1.06-4.13-2.3-2.1-4.39-8.24-2.38-9.22,3.02-25.9,12.34-31.63,20.2-3.03,4.16,1.55,2.78,3.84,2.74,7.59-.14,14.42-.06,21.89,1.29,5.8,1.05,9.96,3.85,15.33-.09,3.66-2.69,2.1-6.4,2.31-10.56.06-1.14.4-5.92.73-6.53.9-1.65,4.7-.16,4.08,2.11l-1.07,14.63c3.19,4.34,6.58,7.89,2.97,13.4-2.6,3.97-6.59,2.96-8.43,4.98-.62.68-1.89,4.14-2.56,5.35-1.25,2.26-2.46,4.62-3.87,6.79-1.05,1.6-6.08,7.55-6.18,8.55-.08.86,1.09,7.2,1.57,7.77,1.24,1.47,12.8,5.55,15.25,6.24,2.11.59,9.49,2.41,11.22,1.87.51-.16,2.95-3.5,4.17-4.28,2.15-1.37,4.95-.8,6.4-2.06.66-.57,2.14-4.04,2.37-4.98.63-2.58-1.7-3.01-2.93-4.8-2.65-3.87-.53-7.36-.77-11.36-3.63-3.82-7.94-6.89-11.72-10.51ZM85.96,84.3c-4.55,1.19-3.57,9.51,2.4,8.28,5.27-1.09,3.47-9.81-2.4-8.28ZM128.96,92.03c-1.15-1.35-12.13-3.17-14.41-3.41-4.75-.49-12.3-.85-16.9,0-1.47.27-5.2,6.71-4.96,8.23.12.75,2.78,5.56,3.37,6.58,2.51,4.3,9.83,14.44,13.71,17.16,2.2,1.54,2.75.17,4.78,0,1.8-.15,4.24.31,5.88,0,2.02-.39,7.48-9,8.71-11.14.85-1.47,3.14-5.43,3.46-6.84.62-2.72-.94-3.13-1.86-5.17-.62-1.36-1.05-4.57-1.76-5.41ZM141.4,96.55c3.62-4.85-2.62-9.63-6.28-5.74-4.17,4.42,3.12,10,6.28,5.74ZM88.14,97.57c-3.17-3.16-5.26,1.43-6.43,3.79-4.7,9.44-7.27,22.88-7.06,33.41.02.86.26,3.63.46,4.32.4,1.36,3.55,2.02,4.9,3.19,3.09,2.69,3.76,7.39,1.64,10.85-.69,1.12-2.97,2.87-2.93,4.01.04.94,4.07,10.12,4.74,10.73.93.84,5.57,2.17,7.01,2.54,18.57,4.78,37.68.7,52.9-10.69,2.22-1.66,10.39-8.65,10.68-11.03.66-5.23-6.58-4.54-10.01-5.39-7.17-1.77-13.95-4.68-20.67-7.64-3.27.54-5.09,1.93-8.79,1.45-1.21-.16-2.54-1.11-3.82-.82s-3.79,2.58-5.1,3.37c-4.46,2.66-13.11,7.32-18.12,8-.82.11-1.41.17-2.16-.28-.08-1.02-.35-2.55.47-3.27,4.26-1.69,8.58-3.24,12.65-5.36,1.86-.96,7.7-4.15,8.89-5.45.78-.85,1.06-4.15,1.11-5.52.13-4.01-4.68-6.89-7.2-9.74-3.95-4.47-7.58-10.01-10.53-15.19-.75-1.31-1.81-4.44-2.64-5.27ZM42.21,113.69c-4.15.96-4.11,7.42.38,8.3,6.45,1.26,6.62-9.91-.38-8.3ZM173.03,121.2c2.29-4.19-2.27-8.46-6.09-5.92-4.26,2.83-1.06,9.33,4.25,7.57.16-.05,1.78-1.54,1.84-1.65ZM119.75,125.87c-4.07-4.48-10.83,2.42-5.77,6.32,4.12,3.17,9.23-2.51,5.77-6.32ZM160.21,138.69c-5,.87-4.17,9.55,2.03,8.28,5.21-1.07,3.55-9.26-2.03-8.28ZM73.46,144.57c-5.36.98-3.86,9.9,2.4,8.27,4.37-1.13,3.84-9.41-2.4-8.27ZM74.17,158.95c-1.39-1.48-11.57-9.76-13.1-8.21-.07.52.03.98.17,1.48.83,2.85,12.58,12.52,15.4,11.72.62-.18.57-.56.44-1.09-.21-.89-2.19-3.14-2.91-3.9Z"/>
</svg>