<?xml version="1.0" encoding="UTF-8"?>
<svg id="Layer_1" data-name="Layer 1" xmlns="http://www.w3.org/2000/svg" viewBox="0 0 205.47 208.44">
  <defs>
    <style>
      .cls-1 {
        fill: #1a3741;
      }
    </style>
  </defs>
  <path class="cls-1" d="M160.23,57.42c.74-.69,2.57-.31,2.57.95v24.86c.54,1.83,2.31,2.18,3.42.53l.21-25.74c.41-1.34,2.52-1.15,2.75.13v24.19c-.06,2.95,3.4,3.5,3.74.44v-24.63c.25-1.32,2.34-1.38,2.81-.18l.02,34.02c-.18,1.62-1.35,3.17-2.93,3.67-1.49.47-3.12-.1-3.55,1.95-.79,3.79.11,10.83-.09,15.09-2.26,47.88-55.4,76.59-97.08,52.63-4.09-2.35-11.75-7.73-14.57-11.39-1.05-1.37.52-2.02,1.1-3.3,8.1,8.65,18.4,15.18,29.93,18.24,34.18,9.06,69.15-12.68,76.31-47.05,1.05-5.04,1.28-10.16,1.44-15.28.08-2.8-.44-7.28.09-9.81.28-1.36,1.46-2.89,2.77-3.39,1.58-.61,3.38.13,3.72-2.22.08-.57.14-3.27-.19-3.51-.89.13-1.81.22-2.7.07-.82-.14-1.7-.94-2.07-1-.29-.05-1.59.92-2.4,1.04-.61.09-1.52.07-2.13-.03-.81-.14-1.7-.98-2.07-1.01-.21-.02-1.54.9-2.22,1.01-.82.14-1.79.12-2.6-.11l-.29.3c.03,1.03-.15,2.27-.04,3.27.27,2.26,2.34,1.62,3.86,2.29,1.68.74,2.59,2.52,2.75,4.29.74,8.63.11,20.15-2.37,28.44-11.3,37.8-56.87,53.65-89.43,31.03-3.06-2.12-8.16-6.29-10.38-9.19-.93-1.22.3-2.63.66-3.96,8.77,10.54,21.1,17.95,34.79,19.98,29.02,4.31,56.78-14.82,62.66-43.52,1.58-7.69.83-15.39.98-23.21-.56-1.63-2.14-1.24-3.42-1.64-1.41-.44-2.73-1.97-2.94-3.44l-.03-33.87c.08-1.58,2.59-1.66,2.87-.2v24.86c.28,2.35,3.27,2.42,3.53.22.52-7.79-.71-16.53-.02-24.21.04-.43.2-1.3.51-1.58Z"/>
  <path class="cls-1" d="M149.62,61.87l-.44.22c-1.42-1.43-2.86-2.88-4.4-4.18-39.42-33.58-98.74-7.68-102.07,43.56-.3,4.6.14,9.59-.21,14.08-.56,7.09-8.75,6.74-9.66,14.53-.89,7.62,2.07,24.39,12.6,23.16,8.93-1.04,12.25-19.03,9.54-25.77-2.21-5.48-8.15-5.57-8.91-11.55s-.21-16.7.89-22.54c8.34-44.41,63.06-62.5,96.72-32.18.77.69,5.94,5.91,5.94,6.38v4.18s-.32.44-.44.22c-4.77-6.52-11.01-12.1-18.11-15.99-26.08-14.3-58.44-5.43-73.93,19.63-7.19,11.64-8.76,23.5-8.06,37.05.06,1.11.22,3.34.51,4.33.55,1.87,2.6,2.53,4,3.69,7,5.81,5.99,16.95,3.2,24.74-4.94,13.81-19.11,14.83-24.68.92-2.8-6.99-4.07-18.06,1.25-24.13,2.65-3.02,5.91-2.8,6.28-7.58.52-6.64-.34-12.91.68-19.77,7.01-47.01,61.4-70.69,100.78-43.65,1.1.76,8.51,6.42,8.51,7.11v3.52Z"/>
  <path class="cls-1" d="M114.86,90.14c11.89,2.21,22.11,11.19,25.79,22.71.27.84,1.04,4.66,1.24,4.92.41.51,3.18.05,4.75,1.19,3.89,2.85,1.9,8.89-2.85,9.03h-70.63c-6.72-.5-6.52-9.11-.85-9.88.89-.12,1.86.17,2.69-.28,2.05-13.77,13.23-25.13,26.87-27.68-.64-2.84,0-5.63,2.32-7.47,5.3-4.2,12.58,1.09,10.66,7.47ZM107.55,83.59c-5.15.87-4.34,9.17,1.24,8.73,5.8-.46,4.85-9.75-1.24-8.73ZM77.58,118.07h61.59c.2-.16.29-.23.29-.5,0-.41-.8-3.24-1-3.85-3.53-10.91-13.44-19.59-24.81-21.38-2.39,2.19-5.19,3.09-8.25,1.65-.83-.39-1.56-1.34-1.99-1.54-.78-.36-5.64,1.23-6.71,1.65-8.35,3.3-15.21,10.55-18.15,19.03-.25.71-1.29,3.96-1.28,4.45,0,.27.09.34.29.5ZM72.79,120.32c-3.04.51-3.15,4.75-.06,5.23l71.98-.18c2.75-1.34,1.74-4.88-1.15-5.11l-70.78.05Z"/>
  <path class="cls-1" d="M130.21,112.08c-1.39,1.39-3.2-2.12-4.01-3.03-2.11-2.35-5.23-4.64-8.1-5.97-.99-.46-4.43-1.37-4.56-2.28-.38-2.7,4.05-.55,5.15-.07,3.7,1.64,7.19,4.28,9.81,7.34.68.79,2.7,3.02,1.71,4.01Z"/>
</svg>