<?xml version="1.0" encoding="UTF-8"?>
<svg id="Layer_1" data-name="Layer 1" xmlns="http://www.w3.org/2000/svg" viewBox="0 0 205.47 208.44">
  <defs>
    <style>
      .cls-1 {
        fill: #1a3741;
      }
    </style>
  </defs>
  <path class="cls-1" d="M170,51.2c1.88,1.63,3.08,4,3.43,6.46v89.71c-.5,4.74-4.34,8.49-9.09,8.94l-70.21-.06c-1.74-.87-.03-2.73.5-3.95.27-.62.59-1.4.78-2.04.3-1.01.41-2.6.73-3.44.09-.22.42-.64.64-.7l55.14-.05.2-.2c-.14-4.95,3.82-9.76,8.73-10.51.75-.11,1.57.11,2.26-.29l.06-64.9-.22-.32c-5.89.25-10.89-4.69-10.84-10.56l-.11-.16-98.55-.06c.07,5.96-4.77,11.03-10.82,10.78l-.22.32v64.95c.03.19,1.9.2,2.19.24,5.22.82,8.77,5.42,8.91,10.6,1.2.52,3.66-.63,4.08,1.03.5,2,.65,3.37,1.49,5.37.54,1.28,2.37,3.37.09,3.95l-18.16-.02c-4.52-.55-8.04-3.94-8.82-8.4-.23-30.22-.27-60.51.02-90.73.67-3.96,3.64-7.09,7.5-8.11,41.92-.35,83.97-.29,125.9-.03,1.6.4,3.11,1.09,4.36,2.17ZM41.43,153.9h15.55l-1.63-5.36c-1.18-.2-3.63.47-4.35-.7-.37-.61.08-1.51.07-2.21-.06-5.12-5.17-8.87-10.11-7.79-.52-.13-.91-.54-.94-1.09v-68.59c.05-.23.29-.48.47-.61.72-.48,2.38-.04,3.36-.14,3.85-.36,7.11-4.04,7.21-7.87.03-1.03-.71-2.24.63-2.85l102-.03c1.6.44.78,2.14.88,3.42.32,3.74,3.59,7.03,7.33,7.34,1.52.13,3.72-.89,3.71,1.4v67.66c-.09,2.03-2.67,1.13-4.11,1.27-3.57.35-6.64,3.82-6.93,7.33-.11,1.32.76,3.08-1.04,3.4l-55.14.02c-.48,1.72-.87,3.47-1.68,5.08l.18.31h67.31c3.21,0,6.65-3.63,6.8-6.79-.11-30.02.23-60.07-.17-90.07-.68-2.76-2.74-4.8-5.45-5.58-41.67-.29-83.45-.29-125.12,0-3.41.98-5.51,3.78-5.76,7.29v87.43c.06,3.9,3,7.35,6.94,7.73Z"/>
  <path class="cls-1" d="M100.17,64.37c14.4-.46,30.33,2.74,42.55,10.53,2.36,1.5,8.56,5.99,9.63,8.4,1.13,2.54-.53,5.78-3.36,6.05s-3.71-1.5-5.58-3.16c-19.55-17.27-61.29-17.51-80.91-.27-1.53,1.34-2.73,3.29-4.91,3.44-3.16.21-5.1-2.22-4.62-5.28.3-1.91,4.95-5.65,6.57-6.88,11.39-8.59,26.48-12.37,40.61-12.82ZM56.1,83.48c-.69.87-1.19,1.83-.33,2.84,1.72,2.02,3.8-1.12,4.98-2.15,20.84-18.36,63.97-17.85,84.67.54.59.53,1.66,1.9,2.32,2.12,1.81.6,3.22-1.28,2.18-2.85s-4.89-4.55-6.53-5.71c-21.99-15.59-61.13-15.36-82.63,1.08-1.35,1.03-3.64,2.85-4.66,4.15Z"/>
  <path class="cls-1" d="M56.14,95.56l93.57.06c4.02,1.4,3.34,6.8-.98,7.18H56.78c-4.36-.37-4.84-6.18-.64-7.23ZM56.68,97.98c-1.2.26-1.33,1.51-.37,2.18l92.27.13c1.4.18,1.82-1.87.58-2.26l-92.49-.06Z"/>
  <path class="cls-1" d="M151.3,112.97c-.57.55-1.51.94-2.3.99H56.51c-4.56-.7-4.3-6.9.4-7.27h91.82c3.19.06,4.92,4.01,2.57,6.28ZM56.08,109.42c-.81.76-.33,2.15.83,2.12l92.28-.08c1.3-.71.71-2.38-.73-2.35H57.04c-.29,0-.75.12-.96.32Z"/>
  <path class="cls-1" d="M56,118.02l93.13-.04c3.99.51,4.37,5.85.64,7.1-31.27.28-62.63.28-93.9,0-3.61-1.21-3.46-5.96.13-7.06ZM56.08,122.52c.22.19.8.29,1.1.31h91.01c1.58.06,2.43-1.43,1.01-2.37l-92.29-.07c-1.15-.07-1.65,1.41-.83,2.12Z"/>
  <path class="cls-1" d="M64.73,155.84c-8.08-8.54-4.75-22.68,6.18-26.82,14.04-5.32,27.38,9.25,20.9,22.76-5.02,10.46-19.11,12.49-27.07,4.06ZM86.95,134.58c-6.9-6.98-18.73-4.96-22.89,3.87-5.38,11.43,5.64,23.57,17.54,19.41,9.69-3.39,12.58-15.96,5.34-23.28Z"/>
  <path class="cls-1" d="M88.61,177.16l-.33.14-2.6,9.91c-1.57,1.48-2.14-.02-2.55-1.41-1.7-5.76-3.24-12.06-4.68-17.91-.2-.82-.79-2.71-.75-3.43.03-.45.26-.78.68-.95.91-.36,2.68-.35,3.8-.64,1.8-.46,3.79-1.42,5.32-2.49.47-.33,1.6-1.43,1.92-1.57.67-.28,1.59.02,1.79.76l6.26,24.08c-.21.93-.94,1.26-1.85.97-2.24-2.38-4.56-4.69-6.81-7.06-.11-.11-.19-.24-.2-.41ZM89.42,162.24c-.23-.2-1.49.79-1.79.96-1.32.74-2.74,1.42-4.2,1.85-.79.23-1.99.32-2.66.57-.11.04-.19.07-.22.19l3.89,15.52c.23-.06.32-.27.4-.47.75-1.96.88-4.76,1.66-6.68.37-.91,1.27-1.03,2.05-.51,1.31,1.34,2.54,2.75,3.83,4.11.16.17,1.2,1.29,1.35,1.14l-4.31-16.68Z"/>
  <path class="cls-1" d="M64.03,177.35l-6.92,7.27c-.9.3-1.64-.05-1.88-.95l6.12-23.59c.16-1.02.98-1.72,2-1.19.63.33,1.73,1.43,2.52,1.92,1.35.84,3.13,1.67,4.67,2.06,1.16.29,2.77.3,3.81.63.39.13.66.54.67.95-.89,4.06-1.97,8.14-3.03,12.17-.83,3.15-1.59,6.61-2.56,9.68-.2.62-.28,1.23-1.01,1.42-.57.15-1.15-.08-1.43-.6l-2.68-9.96-.29.19ZM72.19,165.6c-2.5-.21-4.93-1.19-7.09-2.4-.31-.17-1.56-1.16-1.79-.96l-4.31,16.68c.14.15,1.07-.86,1.21-1,1.38-1.44,2.71-2.95,4.09-4.38.76-.33,1.6-.17,1.92.65.61,1.59,1.2,4.54,1.63,6.31.06.23.03.47.03.71h.4s3.91-15.6,3.91-15.6Z"/>
  <path class="cls-1" d="M87.6,89.15c-3.43-3.05-1.63-8.88,2.85-9.61l24.85.02c4.97,1.03,6.16,7.66,1.76,10.3-1.46.87-2.32.6-3.89.69-6.48.36-14.38.46-20.86.15-1.89-.09-3.26-.25-4.72-1.55ZM116.43,87.28c1.8-1.8.76-5-1.77-5.33h-23.82c-3.46.7-3.44,5.48-.02,6.19h23.97c.48-.06,1.3-.53,1.63-.86Z"/>
  <path class="cls-1" d="M129.24,130c6.18-.68,13.44.41,19.73-.02,4.3.53,4.56,6.19.41,7.24h-20.44c-4.11-.93-3.95-6.74.3-7.21ZM149.55,134.49c.82-.75.14-2.15-.97-2.11h-18.85c-1.75.1-1.82,2.18-.14,2.42h18.99c.3,0,.74-.12.96-.32Z"/>
  <path class="cls-1" d="M70.76,151.29c-4.25-3.88-3.91-10.88.85-14.18,7.21-5.01,16.57,1.99,13.83,10.33-2.01,6.12-9.94,8.19-14.69,3.86ZM76.21,137.93c-4.96.43-7.63,6.14-4.88,10.31,2.56,3.88,8.57,3.82,11.07-.08,3.02-4.72-.65-10.7-6.19-10.22Z"/>
</svg>